<?xml version="1.0" encoding="UTF-8"?>
<svg id="Layer_1" xmlns="http://www.w3.org/2000/svg" version="1.1" viewBox="0 0 1000 711.4">
  <!-- Generator: Adobe Illustrator 29.8.2, SVG Export Plug-In . SVG Version: 2.1.1 Build 3)  -->
  <defs>
    <style>
      .st0 {
        fill: #fcfaf7;
      }
    </style>
  </defs>
  <path class="st0" d="M192.3,538.6c-11.7,0-20.8-5-27.3-15.1-6.5-10.1-9.7-24.8-9.7-44.3s2.6-37.1,7.8-55.8c5.2-18.7,12.3-36.4,21.4-53.3,9.1-16.9,19.4-31.8,30.9-44.8,11.5-13,23.7-23.3,36.5-30.9,12.8-7.6,25.6-11.4,38.2-11.4s12,1.2,17.5,3.7c5.5,2.4,10.1,6.3,13.6,11.4,1.9,2.9,3.9,4.4,5.8,4.4s3.9-1.5,5.8-4.4c3.6-5.2,6.5-8.5,8.8-10,2.3-1.5,4.4-2.2,6.3-2.2,4.2,0,5.8,2.3,4.9,6.8l-43.4,186.5c-4.9,21.1-1.6,31.7,9.7,31.7s14.2-5,20.2-15.1c6-10.1,12.1-25.6,18.3-46.8,1-3.6,3.1-5.4,6.3-5.4s3.7,1,4.4,2.9c.6,1.9.6,4.2,0,6.8-6.2,30.5-14.5,52.4-24.8,65.5-10.4,13.2-22.9,19.7-37.5,19.7s-21.7-5.4-27-16.1c-5.4-10.7-5.9-25.3-1.7-43.8l6.3-26.8c.6-2.3.2-3.6-1.2-3.9-1.5-.3-2.7.5-3.7,2.4-17.9,32.8-33.7,55.7-47.5,68.7-13.8,13-26.9,19.5-39.2,19.5ZM204.5,513.7c7.8,0,16.4-4.7,25.8-14.1,9.4-9.4,18.8-21.6,28-36.5,9.3-14.9,17.8-31,25.6-48.2,7.8-17.2,14-33.8,18.8-49.7,4.7-15.9,7.1-29.4,7.1-40.4,0-19.8-7-29.7-20.9-29.7s-17.4,3.8-26.8,11.4c-9.4,7.6-18.4,17.9-27,30.9-8.6,13-16.4,27.7-23.4,44.1-7,16.4-12.6,33.4-16.8,51.1-4.2,17.7-6.3,35-6.3,51.9s1.4,19.1,4.1,23.1c2.8,4.1,6.7,6.1,11.9,6.1Z"/>
  <path class="st0" d="M414,538.6c-17.2,0-31-6.7-41.4-20.2-10.4-13.5-15.6-32.5-15.6-57.2s3.8-42.7,11.4-63.8c7.6-21.1,17.6-40.3,30-57.5,12.3-17.2,25.9-31,40.7-41.4,14.8-10.4,29.1-15.6,43.1-15.6s26.2,3.7,32.9,11c6.6,7.3,10,17.1,10,29.5s-5.1,29.2-15.3,43.6c-10.2,14.5-24.5,27.4-42.9,38.7-18.3,11.4-39.9,19.8-64.5,25.3-7.1,1.6-10.9,5.7-11.2,12.2-.3,2.3-.5,4.6-.5,7.1v7.1c0,18.5,3.2,32.5,9.5,41.9,6.3,9.4,15,14.1,26.1,14.1s24.3-5.7,35.8-17c11.5-11.4,21.2-27.4,29-48.2,1-2.9,2.9-4.4,5.8-4.4s3.2.8,3.7,2.4c.5,1.6.4,3.6-.2,5.8-10.4,28.6-23,50.2-37.7,64.8-14.8,14.6-30.9,21.9-48.5,21.9ZM396,412.4c-.7,2.3-.2,4.1,1.2,5.6,1.5,1.5,3.3,1.9,5.6,1.2,20.1-5.5,37-13.9,50.7-25.1,13.6-11.2,23.9-23.8,30.9-37.7,7-14,10.5-27.6,10.5-40.9s-5.4-20.5-16.1-20.5-19.6,5.5-30.7,16.6c-11,11-21.3,25.5-30.7,43.4-9.4,17.9-16.6,37-21.4,57.5Z"/>
  <path class="st0" d="M546.5,538.6c-11,0-19.7-4.4-25.8-13.2-6.2-8.8-7.1-22.9-2.9-42.4l40.4-176.3c1-4.9-1-7.3-5.8-7.3h-18.5c-4.6,0-6.8-2.1-6.8-6.3s.8-4.1,2.4-5.4c1.6-1.3,3.6-1.9,5.8-1.9h17.5c7.5,0,11.8-3.4,13.2-10.2l11.7-52.1c1-3.6,3.2-5.4,6.8-5.4h20c4.5,0,6.3,2.1,5.4,6.3l-12.2,54.1c-1,4.9,1,7.3,5.8,7.3h27.8c5.5,0,8.3,2.1,8.3,6.3s-3.4,7.3-10.2,7.3h-26.3c-7.1,0-11.5,3.4-13.2,10.2l-40.9,178.3c-1.6,7.1-1.4,12.7.7,16.8,2.1,4.1,5.8,6.1,11,6.1,7.5,0,14.4-4.2,20.7-12.7,6.3-8.4,13.1-24.5,20.2-48.2,1.3-4.2,3.4-6.3,6.3-6.3s3.7,1,4.4,2.9c.6,1.9.2,5.5-1.5,10.7-6.2,22.1-12.9,39-20.2,50.7-7.3,11.7-14.7,19.7-22.2,24.1-7.5,4.4-14.8,6.6-21.9,6.6Z"/>
  <path class="st0" d="M651,539c-10.7,0-18.4-4-22.9-11.9-4.6-8-4.7-21-.5-39.2l61.9-265.5c1.6-5.8,1.7-9.9.2-12.2-1.5-2.3-4.5-3.6-9-3.9l-14.6-1.5c-4.9-.3-7-2.4-6.3-6.3.6-2.9,2.9-4.7,6.8-5.4,11.7-1.9,22.1-4.3,31.2-7.1,9.1-2.8,16.4-6.4,21.9-11,2.6-1.9,5-2.9,7.3-2.9,3.9,0,5.4,2.4,4.4,7.3l-72.1,308.8c-1.6,7.1-1.9,12.7-.7,16.8,1.1,4.1,4.1,6.1,9,6.1s12.3-4.3,19.2-12.9c7-8.6,14.9-24.9,23.6-49,1.3-4.2,3.6-6.3,6.8-6.3,4.9,0,6.2,2.9,3.9,8.8-6.8,22.1-14.4,39.5-22.6,52.4-8.3,12.8-16.5,21.8-24.6,27-8.1,5.2-15.8,7.8-22.9,7.8Z"/>
  <path class="st0" d="M777,539c-7.6.8-18.4-4-22.9-11.9-4.6-8-4.7-21-.5-39.2l36-154.4c1.6-7.1,1.9-12.7.7-16.8-1.1-4.1-4.1-6.1-9-6.1s-12.3,4.3-19.2,12.9c-7,8.6-14.9,24.9-23.6,49-1.3,4.2-3.6,6.3-6.8,6.3-4.9,0-6.2-2.9-3.9-8.8,7.1-22.4,14.7-39.9,22.6-52.6,8-12.7,16-21.6,24.1-26.8,8.1-5.2,15.6-7.8,22.4-7.8,11.4,0,19.3,4,23.9,11.9,4.5,8,4.7,21,.5,39.2l-36,154.4c-1.6,7.1-2.9,13.1-3.8,17.2-1.1,5.4-1.6,7.4-2.7,16.4s-.4,16.8-1.8,17ZM816.9,239.5c-6.2,0-11.3-2.2-15.3-6.6-4.1-4.4-6.1-9.7-6.1-15.8,0-8.8,2.7-15.7,8-20.9,5.4-5.2,11.4-7.8,18.3-7.8s11.9,2,16.3,6.1c4.4,4.1,6.6,9.3,6.6,15.8s-2.8,16.2-8.3,21.4c-5.5,5.2-12,7.8-19.5,7.8Z"/>
</svg>